PathFileType	4	(X/Y/Z)	1_coords_data.trc
DataRate	CameraRate	NumFrames	NumMarkers	Units	OrigDataRate	OrigDataStartFrame	OrigNumFrames
30.0	30.0	5	21	m	30.0	1	65
Frame#	Time	THUMB_TIP	THUMB_IP	THUMB_MCP	THUMB_CMC	INDEX_TIP	INDEX_DIP	INDEX_PIP	INDEX_MCP	MIDDLE_TIP	MIDDLE_DIP	MIDDLE_PIP	MIDDLE_MCP	RING_TIP	RING_DIP	RING_PIP	RING_MCP	PINKY_TIP	PINKY_DIP	PINKY_PIP	PINKY_MCP	WRIST
X1	Y1	Z1	X2	Y2	Z2	X3	Y3	Z3	X4	Y4	Z4	X5	Y5	Z5	X6	Y6	Z6	X7	Y7	Z7	X8	Y8	Z8	X9	Y9	Z9	X10	Y10	Z10	X11	Y11	Z11	X12	Y12	Z12	X13	Y13	Z13	X14	Y14	Z14	X15	Y15	Z15	X16	Y16	Z16	X17	Y17	Z17	X18	Y18	Z18	X19	Y19	Z19	X20	Y20	Z20	X21	Y21	Z21
0	-2.749317978547796e-18	0.48669161699375774	-0.013092886087340605	-0.16888452119255754	0.4879294286344111	-0.01801658591782085	-0.14647414408012166	0.4781270205093703	-0.029990531818193333	-0.11946752610368694	0.4778032401068754	-0.03053334219589987	-0.07486382084117738	0.5090066559900298	-0.016695202141946086	-0.10694066201816399	0.5264266804020217	-0.013610617735290154	-0.11081726988120888	0.5350746869946184	0.006766851941567675	-0.1227328288082229	0.49347746733860287	0.015618528206918447	-0.12050679237935824	0.5066437531305912	-0.018443872168027675	-0.08886061373320309	0.5242225204220883	-0.014087436159987199	-0.08895229698816454	0.5400338016605286	0.008502598990304588	-0.09839174864106948	0.5010462535027793	0.03026185773394585	-0.1000207571046603	0.5061431548509283	-0.0075871349638581	-0.07367520935542171	0.5237391559392226	-0.003846159115658665	-0.07249799000290647	0.5394802691668927	0.015028681534920318	-0.07651516858605634	0.506471725461492	0.0382955289244723	-0.07846726720035713	0.5067665802658201	-0.009234943203178747	-0.0562202690835355	0.5234560267605746	-0.006094594304210554	-0.05407537176863264	0.5348629423319221	0.011519902161354456	-0.054726378998045555	0.5076479306476646	0.035170274297377846	-0.055667913837194716	0.4622830810018609	-0.023011742144276925	-0.051989820119430985
1	0.03333333333333339	0.4843350120519032	-0.01501762999103784	-0.16968647342874937	0.4859954787015029	-0.019499598612734648	-0.14721082421054682	0.4770612640441641	-0.03082030084922438	-0.1196274685530252	0.4775368921047624	-0.030594054335565612	-0.07502239495749097	0.5073739307632406	-0.016750165159858277	-0.10741833376050114	0.5248469535295259	-0.013900622611705549	-0.11123586996532486	0.5337747607260614	0.006197739140566094	-0.12341617975351638	0.492216645625878	0.01525083499454949	-0.12127127444593278	0.50542907672694	-0.018309739070673237	-0.08929521341654223	0.5229815469564656	-0.013853721564784038	-0.08952908694823447	0.5387831320742174	0.008561861152176609	-0.09939119165390153	0.4997448597032095	0.03022522596469779	-0.10108229670286684	0.5053916609893511	-0.007213241244645285	-0.07430143467988004	0.5229846979106749	-0.003403405217549782	-0.07331644669437654	0.5385340988960117	0.01552894666209892	-0.07778435003961304	0.505335520138307	0.038519506497844636	-0.07978668889891782	0.5063227413927731	-0.00851487739533685	-0.05672196160917431	0.5230558615878104	-0.005359343650842896	-0.05497688415364532	0.5343280067388239	0.012319968660476244	-0.056068982543592494	0.506860880874068	0.03567795052512568	-0.05698829257854776	0.46228308100186094	-0.023011742144276925	-0.051989820119430985
2	0.06666666666666676	0.4822749895353814	-0.016609185497526546	-0.1702595680049438	0.4843942366333184	-0.020718704326859627	-0.1477513329179974	0.4762333409642378	-0.03149378533343061	-0.1197135474993839	0.477341396226161	-0.030666609141230428	-0.07512680066712918	0.5061092480718217	-0.016848743173469738	-0.10772376686304552	0.5236432523914367	-0.014246664281750476	-0.11143697005718878	0.53288131359927	0.0055950345179504035	-0.12380527822210263	0.49136863243815426	0.014891430126329763	-0.12182779863736526	0.5044747828372096	-0.01830977547931245	-0.08954717635075482	0.522013093119774	-0.013803001314575347	-0.08985807675370538	0.5378819669632219	0.008429541900915827	-0.10002185632195948	0.4988620191815424	0.030113708798341854	-0.10186264476161921	0.5047938550198687	-0.007016119020613498	-0.07470835207496362	0.5223896103244889	-0.003189495490925398	-0.07384443794614481	0.5378466330125685	0.01573764043288528	-0.07864276623230748	0.5045692049043426	0.038603601966477274	-0.08075970166971391	0.5059231193250646	-0.00803026676386498	-0.05704862817270662	0.5226902459165392	-0.004914876933759471	-0.055579678863867055	0.5339187389100436	0.012768930628632935	-0.05699950779409024	0.5063328085231205	0.0359846427115873	-0.05796418813969495	0.4622830810018609	-0.023011742144276925	-0.051989820119430985
3	0.10000000000000014	0.48050711832198867	-0.017864955735413246	-0.17064627941626542	0.4831037713669139	-0.0216724473053026	-0.1481349400312021	0.4756151167717142	-0.032016223689092516	-0.11974926860218804	0.4772070907335676	-0.030745139632186946	-0.07518762630497178	0.5051800257375516	-0.016968376478027625	-0.10789658188803786	0.5227775245079231	-0.014614765738798274	-0.11147269059932718	0.5323385594330701	0.004998665666237301	-0.12395907328928524	0.4908759994551831	0.01456053892370368	-0.12220898932321977	0.5037602163536963	-0.018401142253854585	-0.08966136182923157	0.5212960607434349	-0.013886164274684476	-0.08999171828289942	0.5372919318227003	0.008164996598892027	-0.10034970855819758	0.4983441375501077	0.029959739603544144	-0.10240066435025497	0.5043408989571407	-0.006953769881446248	-0.0749365374612172	0.5219450218939241	-0.0031526022340230275	-0.07413280856239257	0.5373937816522258	0.0157230236281084	-0.07915541239338642	0.5041266787548997	0.03858881355411703	-0.08143057170173473	0.5055736956858687	-0.00774026327816324	-0.05722943944262471	0.5223700378329712	-0.004708043408808926	-0.0559300037414997	0.5336310853763976	0.012935323273894683	-0.05757695223017856	0.5060346682695516	0.036134456323016706	-0.05863593269936407	0.4622830810018609	-0.023011742144276925	-0.051989820119430985
4	0.13333333333333353	0.47902170078375517	-0.018787073887130634	-0.17088324301436447	0.48209691863150966	-0.022363957818783087	-0.1483943805147105	0.4751771910547598	-0.03239356884641542	-0.1197527277534266	0.4771238819042953	-0.030823600443325994	-0.07521470361730631	0.5045514679838583	-0.017090196857140305	-0.10796879796036374	0.5222102529723647	-0.014974455952568189	-0.11138800154517992	0.5320891086001385	0.004444837927241263	-0.12393029279100876	0.4906790629893692	0.014274685434435663	-0.1224408920728266	0.5032622622423647	-0.018547607340458905	-0.08967520398578765	0.5208056086724211	-0.014059822573951997	-0.08997650769392762	0.5369698450275483	0.007820716527991878	-0.10043447220256374	0.4981332884965359	0.029788973805753738	-0.10272913339575473	0.5040209865620191	-0.006989470023890387	-0.07502229288088869	0.5216379499853765	-0.003246149267131626	-0.07422847334717242	0.5371456767399712	0.015545534669696437	-0.07938240434430321	0.5039575138932633	0.038507115237510936	-0.08183851889541205	0.5052784482451564	-0.00760716682697582	-0.05729212408714124	0.5221010559727495	-0.004689550116357077	-0.05607254138250772	0.5334547628970172	0.012880824858645501	-0.05785783724472371	0.5059330812645735	0.03616258009434958	-0.059041207122311534	0.46228308100186094	-0.023011742144276925	-0.051989820119430985
